# xmcd
# Track frame offsets:
# 182
# 12037
# 26922
# 40417
# 54740
# 64365
# 76520
# 89062
# 102170
# 116132
# 130522
# 146205
# 160822
# 173895
#
# Disc length: 2543 seconds
# Revision: 0
# Processed by: cddbd v1.4PL0 Copyright (c) Steve Scherf et al.
# Submitted via: VisiTrax 2.9.5.180 - For more info visit www.synapsa.com
#
DISCID=be09ed0e
DTITLE=Glen Campbell - The Glen Campbell and Friends collection
DYEAR=1990
DGENRE=
TTITLE0=Glen Campbell with Bobbie Gentry - All I have to do is dream
TTITLE1=Glen Campbell with Anne Murray - I say a little prayer/By the time I g
TTITLE1=et to Phoenix
TTITLE2=Glen Campbell with Tennessee Ernie Ford - There goes my everything
TTITLE3=Glen Campbell with Tanya Tucker - Why don't we just sleep on it tonigh
TTITLE3=t
TTITLE4=Glen Campbell with Bobbie Gentry - Let it be me
TTITLE5=Glen Campbell with Anne Murray - United we stand
TTITLE6=Glen Campbell with Rita Coolidge - Something 'bout you baby I like
TTITLE7=Glen Campbell with Anne Murray - Canadian sunset
TTITLE8=Glen Campbell with Tennessee Ernie Ford - Trouble on my mind
TTITLE9=Glen Campbell with Bobbie Gentry - Gentle on my mind
TTITLE10=Glen Campbell with Tanya Tucker - Shoulder to shoulder
TTITLE11=Glen Campbell with Bobbie Gentry - My elusive dream
TTITLE12=Glen Campbell with Tennessee Ernie Ford - I really don't want to know
TTITLE13=Glen Campbell with Anne Murray - Love story (you and me)
EXTD=
EXTT0=
EXTT1=
EXTT2=
EXTT3=
EXTT4=
EXTT5=
EXTT6=
EXTT7=
EXTT8=
EXTT9=
EXTT10=
EXTT11=
EXTT12=
EXTT13=
PLAYORDER=
